<?xml version="1.0" encoding="utf-8"?>
<!-- Generator: Adobe Illustrator 26.2.1, SVG Export Plug-In . SVG Version: 6.00 Build 0)  -->
<svg version="1.1" id="Layer_1" xmlns="http://www.w3.org/2000/svg" xmlns:xlink="http://www.w3.org/1999/xlink" x="0px" y="0px"
	 viewBox="0 0 158 122" style="enable-background:new 0 0 158 122;" xml:space="preserve">
<style type="text/css">
	.st0{fill:none;stroke:#231F20;stroke-width:5;stroke-linecap:round;stroke-miterlimit:10;}
	.st1{fill:none;stroke:#231F20;stroke-width:5.0298;stroke-linecap:round;stroke-miterlimit:10;}
</style>
<line class="st0" x1="45.6" y1="36.8" x2="45.6" y2="108.8"/>
<path class="st0" d="M45.6,85.7c0,0,0.2,11.9-11.6,11.9c-11.9,0-11.6-11.9-11.6-11.9V55.5c0,0,0-12,12-12s11.3,12,11.3,12
	s0.8-12,12.5-12c11.8,0,11.8,12,11.8,12v30.2c0,0,0.8,11.9,6.4,11.9s5.5-11.9,5.5-11.9V36.8c0,0,0.5-23.4,24.4-23.4
	s23.9,23.4,23.9,23.4v60.8c0,0,0.1,11.2-6,11.2S118,97.6,118,97.6V55.5c0,0,0.5-12-11.6-12s-12.1,12-12.1,12v30.2
	c0,0,0.3,11.9,3.2,11.9s12-44.9,12-44.9"/>
<line class="st0" x1="40.1" y1="37" x2="9.8" y2="37"/>
<line class="st0" x1="76.3" y1="37" x2="51.8" y2="37"/>
<line class="st0" x1="124" y1="36.8" x2="89.2" y2="36.8"/>
<line class="st0" x1="148.2" y1="36.8" x2="135.8" y2="36.8"/>
<path class="st1" d="M117.8,85c0,0,0.6,12-8.8,12"/>
</svg>
